<svg xmlns="http://www.w3.org/2000/svg" width="100" height="100"><g transform="translate(-10 -12.5)" fill="none" fill-rule="evenodd"><circle cx="63" cy="65" r="39" fill="#ffcf2e"/><path d="M110 78V31.3c0-5.7-4.6-10.3-10.3-10.3H43c-5.7 0-10.2 4.6-10.2 10.3v10H20.3C14.6 41.3 10 46 10 51.6v46.7L25.3 89h51.6c5.8 0 10.3-4.6 10.3-10.3v-10h7.4zM42.6 35.8c0-2.5 2-4.5 4.3-4.5h48.8c2.3 0 4.2 2 4.2 4.5v17.4c0 2.5-1.9 4.6-4.2 4.6H46.9c-2.4 0-4.3-2-4.3-4.6zm34.8 37.7c0 2.6-2 4.6-4.3 4.6h-49c-2.2 0-4.1-2-4.1-4.6V56.2c0-2.6 1.9-4.6 4.2-4.6h8.5v6.7c0 5.7 4.5 10.3 10.2 10.3h34.4v5z" fill="#192743"/></g></svg>