<svg xmlns="http://www.w3.org/2000/svg" width="100" height="100"><g transform="matrix(.8378 0 0 .8378 -2.3 -1.2)" fill="none" fill-rule="evenodd"><circle cx="76.5" cy="78.5" r="39.5" fill="#ffcf2e"/><path d="M99.7 16.7L68.1 5.2C59.5 2 49.7 6.9 46.4 16L28.7 64.6c-3.3 9.1 1 19.2 9.6 22.3L70 98.4c8.5 3.2 18.3-1.7 21.7-10.9L109.3 39c3.4-9.2-.9-19.2-9.6-22.3z" fill="#192743"/><path d="M83.7 86c-1.6 4.4-6.1 6.7-10.2 5.2L40.2 79.1c-4-1.5-6-6.2-4.4-10.5l18.6-51c1.5-4.4 6-6.7 10.1-5.2l33.3 12c4 1.6 6 6.2 4.5 10.6z" fill="#fff"/><path d="M76.8 14.7H43.1c-9 0-16.6 7.8-16.6 17.6V84c0 9.7 7.4 17.7 16.6 17.7h33.7c9.2 0 16.7-8 16.7-17.7V32.3c0-9.8-7.4-17.6-16.7-17.6z" fill="#192743"/><path d="M85.5 85.3c0 4.7-3.5 8.4-7.8 8.4H42.3c-4.3 0-7.8-3.7-7.8-8.4V31c0-4.6 3.5-8.3 7.8-8.3h35.4c4.3 0 7.8 3.7 7.8 8.3z" fill="#fff"/><text font-size="32" font-weight="600" font-family="Poppins-ExtraBold,Poppins" fill="#192743" transform="translate(26.5 14.7)"><tspan x="24" y="56">2</tspan></text><g><path d="M51.2 22.7L19.5 34.2C11 37.3 6.5 47.3 10 56.5l17.7 48.6c3.3 9 13 14 21.7 10.9l31.6-11.5c8.6-3.2 13-13.1 9.6-22.4L73 33.6c-3.4-9.2-13-14-21.7-10.9z" fill="#192743"/><path d="M83.5 86.2c1.6 4.3-.4 9-4.5 10.4l-33.3 12.2c-4 1.4-8.6-.9-10.1-5.2L17 52.6c-1.6-4.4.4-9 4.4-10.6l33.3-12c4-1.6 8.6.7 10.2 5z" fill="#fff"/><path d="M44.8 79.3c2-3 3.5-5.7 4.6-8 1-2.3 1.2-4 .7-5.5-.4-1.3-1.2-1.7-2.3-1.4-.6.3-1 .6-1 1.2-.1.6 0 1.4.4 2.5l-5.8 2c-.8-2.7-.7-5 .3-6.8 1-1.9 2.6-3.2 4.8-4 2.4-.9 4.4-1 6-.2 1.6.8 2.8 2.1 3.5 4 .7 2 .7 4.1 0 6.5-.8 2.3-2 4.5-3.6 6.5l7.6-2.8 1.8 4.8-15.4 5.6z" fill="#192743"/></g></g></svg>