<svg xmlns="http://www.w3.org/2000/svg" width="100" height="100"><g transform="matrix(.86864 0 0 .86864 -1 -6.9)" fill="none" fill-rule="evenodd"><circle cx="41" cy="74" r="39" fill="#ffcf2e"/><g fill="#192743"><path d="M60.9 74.3a14.2 14.2 0 1 1 0-28.3C68.7 46 75 52.4 75 60.1c0 7.8-6.4 14.2-14.2 14.2zm0-20.8a6.7 6.7 0 0 0 0 13.4 6.7 6.7 0 0 0 0-13.4zM43.4 102H36c0-1.6.5-8.1 5.6-13.5 4.3-4.5 10.6-6.7 18.9-6.7 23 0 24.8 17.8 25 20.2h-7.6c-.1-2.1-1.5-12.7-17.4-12.7-6.1 0-10.6 1.5-13.5 4.4a13 13 0 0 0-3.6 8.3z"/><path d="M49.8 31.5C51 36 55.2 39.3 60 39.3c5 0 9.2-3.4 10.4-8a36 36 0 0 1 23.8 48.5l-.3-.2-.1-.3-3-7.4a4.3 4.3 0 0 0-5.6-2.4A4.3 4.3 0 0 0 83 75l8.6 21.2 21.2-8.6a4.3 4.3 0 0 0 2.4-5.5 4.3 4.3 0 0 0-5.6-2.4l-7.4 3a44.4 44.4 0 0 0-33.7-60.6 10.6 10.6 0 0 0-16.9.1 44.4 44.4 0 0 0-32.7 60.5l-7.4-3c-2.2-.8-4.7.2-5.6 2.4-.8 2.2.3 4.6 2.4 5.5l21.2 8.6L38 75c.9-2.1-.2-4.6-2.3-5.5-2.2-.8-4.8.2-5.6 2.4l-3 7.4-.1.3-.3.2a36 36 0 0 1 23.1-48.2z"/></g></g></svg>