<svg xmlns="http://www.w3.org/2000/svg" width="100" height="100"><g transform="matrix(.89505 0 0 .90653 -7.8 -.6)" fill="none" fill-rule="evenodd"><circle cx="81" cy="46" r="39" fill="#ffcf2e"/><path d="M81.6 48.8a16.2 16.2 0 1 0-32.4 0 16.2 16.2 0 0 0 32.4 0zm-23.8 0a7.6 7.6 0 1 1 15.1 0 7.6 7.6 0 0 1-15 0zM9.8 68c-1.2 2-.5 4.6 1.5 5.8l19.6 11.8L42.7 66c1.2-2 .5-4.6-1.4-5.8-2.1-1.2-4.7-.6-6 1.5l-4 6.9-.2.3h-.3A35.9 35.9 0 1 1 92 84.7c-1-2.4-2.4-5-4.7-7.4-5-5.1-12.2-7.7-21.5-7.7-15.3 0-22.4 6.8-25.6 13l-5.4 9.6 1.8 1.6a44.4 44.4 0 1 0-14-23.1l-7-4.2c-2-1.2-4.6-.6-5.8 1.5zm56 10.2c6.8 0 12 1.7 15.3 5 2.4 2.4 3.4 5.5 3.8 7.4a35.8 35.8 0 0 1-38.6 0c.8-4.3 4.6-12.4 19.5-12.4z" fill="#192743"/></g></svg>