<svg xmlns="http://www.w3.org/2000/svg" width="100" height="100"><g transform="translate(-5 -15.5)" fill="none" fill-rule="evenodd"><circle cx="46" cy="74" r="39" fill="#ffcf2e"/><path d="M50.8 54c-.2.2-.5.2-.8.2h-9a2.5 2.5 0 0 1-2.5-2.5c0-1.5 1.2-2.6 2.6-2.6h9.2a19 19 0 0 1 4.2-11V26.5H25.3v51H53A40.2 40.2 0 0 1 69.9 74c30.7 0 33 23.8 33.1 27.1H93c-.3-2.9-2.1-17-23.2-17-8 0-14 2-17.8 5.9-4.3 4.3-4.6 9.9-4.7 11.1h-10c0-1.7.4-7.2 3.7-12.9H21.2a4.2 4.2 0 0 1-4.2-4.2V22.2c0-2.3 1.9-4.2 4.2-4.2h37.5c2.3 0 4.1 1.9 4.1 4.2v10c2-.7 4.1-1.1 6.3-1.1h.7c3.3 0 6.4 1.1 9.1 2.8 5.4 3.4 9 9.3 9.1 16.3 0 10.4-8.4 19-18.8 19-6.1 0-11.5-3-14.9-7.5a18.8 18.8 0 0 1-3.5-7.6zM38.4 80a2.9 2.9 0 0 0-2.8 2.9c0 1.5 1.3 2.8 2.8 2.8 1.5 0 2.8-1.3 2.8-2.8 0-1.5-1.2-2.8-2.8-2.8zm21.8-30c0 .8.2 1.7.3 2.3 1 3.8 4.5 6.6 8.5 6.6 4.8 0 8.8-3.9 8.8-8.8a9 9 0 0 0-8.1-9H69c-4.8 0-8.8 4-8.8 9zm-19.1-9.8a2.5 2.5 0 0 1-2.6-2.6c0-1.4 1.2-2.5 2.6-2.5h9c1.3 0 2.5 1.1 2.5 2.5s-1.2 2.6-2.6 2.6zm-6.7-6.5c.6-.8 1.8-1 2.6-.3.8.6 1 1.8.3 2.6l-4.1 5.4c-.7 1-2.1 1-3 0l-2.6-3.2c-.6-.8-.5-2 .3-2.7.7-.6 2-.5 2.6.3l1.2 1.5zm6.7 32.7a2.5 2.5 0 0 1-2.6-2.6c0-1.4 1.2-2.5 2.6-2.5h9c1.3 0 2.5 1 2.5 2.5 0 1.4-1.2 2.6-2.6 2.6zm-6.7-20.6c.7-.8 1.8-1 2.6-.3s1 1.8.3 2.6l-4.1 5.4c-.8.9-2.2 1-3 0l-2.6-3.3c-.6-.8-.5-2 .3-2.6.7-.7 2-.6 2.6.2l1.2 1.5z" fill="#192743"/></g></svg>