<svg xmlns="http://www.w3.org/2000/svg" width="100" height="100"><g transform="matrix(.81764 0 0 .81764 1 -1.5)" fill="none" fill-rule="evenodd"><circle cx="38" cy="63" r="38" fill="#ffcf2e"/><path d="M47.7 75.8c3.5-1.6 7.7-2.4 12.5-2.4s8.6.8 11.7 2c.9-2.2 2.2-4.6 4.3-6.8 4.3-4.6 10.6-6.8 18.9-6.8 23 0 24.8 17.8 24.9 20.2h-7.5C112.4 80 111 69.4 95 69.4c-6.1 0-10.6 1.4-13.5 4.3-1.8 1.8-2.7 4-3.1 5.6 6 5.4 6.6 12.8 6.7 14.3h-7.6c0-2.1-1.4-12.6-17.4-12.6-6 0-10.5 1.4-13.4 4.3a13 13 0 0 0-3.6 8.3v.1h-7.4c0-1.6.5-8.2 5.6-13.5-1.2-3.9-4.9-9.9-17-9.9-6 0-10.5 1.5-13.4 4.4A13 13 0 0 0 7.4 83H0c0-1.6.5-8.1 5.6-13.5 4.3-4.5 10.6-6.7 18.9-6.7 14.6 0 20.7 7.1 23.2 13zm12-9.8c-7.9 0-14.3-6.4-14.3-14.2a14.2 14.2 0 0 1 28.5 0c0 7.9-6.4 14.2-14.2 14.2zm0-20.8a6.7 6.7 0 0 0 0 13.3 6.7 6.7 0 0 0 0-13.3zm34.8 11.2a14.2 14.2 0 1 1 0-28.5 14.2 14.2 0 0 1 0 28.5zm0-20.9a6.7 6.7 0 0 0 0 13.4 6.7 6.7 0 0 0 0-13.4zM24.9 55.3a14.2 14.2 0 1 1 0-28.3C32.7 27 39 33.4 39 41.1c0 7.8-6.4 14.2-14.2 14.2zm0-20.8a6.7 6.7 0 0 0 0 13.4 6.7 6.7 0 0 0 0-13.4z" fill="#192743"/></g></svg>