<svg xmlns="http://www.w3.org/2000/svg" viewBox="0 0 300 300" fill-rule="evenodd" stroke-linejoin="round" stroke-miterlimit="1.4"><path d="M1904.5 793.7L1880 810l-25.3-37.8 24.5-16.4 25.3 37.9z" fill="url(#a)" transform="matrix(1.1171 0 0 1.1171 -1931.4 -828.7)"/><path d="M235 180l41.8 62.7L227 276 185 213.2l-7.3-11 50-33.2 7.2 11z" fill="url(#b)" transform="matrix(1.1171 0 0 1.1171 -44 -16)"/><path d="M172 221.9l9.3 13.8-38 25.3-16.5-24.7 8.3-5.6 29.7-19.8 7.3 11z" fill="url(#c)" transform="matrix(1.1171 0 0 1.1171 -44 -16)"/><path d="M255.7 150.2l10.7-7 16.5 24.7-24.5 16.4-9.3-13.9 13.9-9.2-7.3-11zm-6.6 20.2l-7.3-11 13.9-9.2 7.3 11-13.9 9.2z" fill="url(#d)" transform="matrix(1.1171 0 0 1.1171 -44 -16)"/><path d="M83.7 153.8l-8.3 5.5-25.2-37.8 38-25.4 17.7 26.6-29.7 19.8 29.7-19.8 7.5 11.3-29.7 19.8z" fill="url(#e)" transform="matrix(1.1171 0 0 1.1171 -44 -16)"/><path d="M168.7 80.7l7.6 11.3-50 33.3-7.5-11.3-41.5-62.2 50-33.3 41.4 62.2z" fill="url(#f)" transform="matrix(1.1171 0 0 1.1171 -44 -16)"/><path d="M204.4 73.3l-14 9.3-7.5-11.4-17.7-26.5 24.5-16.4L215 66.2l-10.6 7.1z" fill="url(#g)" transform="matrix(1.1171 0 0 1.1171 -44 -16)"/><path d="M115 254l-8.1-12.3 33.1-22.1 8.2 12.2L115 254z" fill="#714896"/><path d="M234.3 174.4L226 162l15.5-10.3 8.1 12.2-15.4 10.4z" fill="#6f4795"/><path d="M49.5 155.8L41.1 143 74.2 121l8.5 12.6-33.2 22.2z" fill="#88519f"/><path d="M168.7 76.2l-8.4-12.7 15.5-10.3 8.4 12.7-15.5 10.3z" fill="#85509e"/><path d="M218.4 185l-55.7 37.2-8.2-12.3 55.7-37.2 8.2 12.3z" fill="#8d166a"/><path d="M144.4 74.1l8.5 12.7L97 124l-8.4-12.7 55.7-37.2z" fill="#a70d6f"/><path fill="#9e61ad" d="M33.7 64l10.5 15.8-15.8 10.5L18 74.5z"/><path fill="#8053a3" d="M90.5 253l10.5 15.8-15.7 10.6-10.5-15.8z"/><path d="M1015.9 2781.7l-52.8-53.1 187.7-188 54.5 51.7-189.5 189.4z" fill="url(#h)" transform="rotate(11.3 14958.4 -3807.2) scale(1.1171)"/><defs><linearGradient x2="1" id="a" gradientUnits="userSpaceOnUse" gradientTransform="scale(440.583) rotate(45 0 5.3)"><stop offset="0" stop-color="#c06fbb"/><stop offset="1" stop-color="#6e4d9b"/></linearGradient><linearGradient x2="1" id="b" gradientUnits="userSpaceOnUse" gradientTransform="matrix(-168.486 -248.455 240.79 -173.85 250 259.3)"><stop offset="0" stop-color="#6e4d9b"/><stop offset=".1" stop-color="#77327a"/><stop offset=".3" stop-color="#b31777"/><stop offset=".8" stop-color="#cd0f7e"/><stop offset="1" stop-color="#ed2c89"/></linearGradient><linearGradient x2="1" id="c" gradientUnits="userSpaceOnUse" gradientTransform="scale(440.583 563.764) rotate(45 .3 -.2)"><stop offset="0" stop-color="#c06fbb"/><stop offset="1" stop-color="#6e4d9b"/></linearGradient><linearGradient x2="1" id="d" gradientUnits="userSpaceOnUse" gradientTransform="scale(535.998 440.583) rotate(45 0 -.3)"><stop offset="0" stop-color="#c06fbb"/><stop offset="1" stop-color="#6e4d9b"/></linearGradient><linearGradient x2="1" id="e" gradientUnits="userSpaceOnUse" gradientTransform="scale(500.345 440.583) rotate(45 .1 -.1)"><stop offset="0" stop-color="#c06fbb"/><stop offset="1" stop-color="#6e4d9b"/></linearGradient><linearGradient x2="1" id="f" gradientUnits="userSpaceOnUse" gradientTransform="matrix(-168.959 -249.473 241.466 -174.562 266.4 289.8)"><stop offset="0" stop-color="#6e4d9b"/><stop offset=".1" stop-color="#77327a"/><stop offset=".3" stop-color="#b31777"/><stop offset=".8" stop-color="#cd0f7e"/><stop offset="1" stop-color="#ed2c89"/></linearGradient><linearGradient x2="1" id="g" gradientUnits="userSpaceOnUse" gradientTransform="scale(440.583 531.26) rotate(45 .1 -.1)"><stop offset="0" stop-color="#c06fbb"/><stop offset="1" stop-color="#6e4d9b"/></linearGradient><linearGradient x2="1" id="h" gradientUnits="userSpaceOnUse" gradientTransform="scale(268.404) rotate(-44.6 14.4 .6)"><stop offset="0" stop-color="#6e4d9b"/><stop offset=".1" stop-color="#77327a"/><stop offset=".5" stop-color="#b31777"/><stop offset=".8" stop-color="#cd0f7e"/><stop offset="1" stop-color="#ed2c89"/></linearGradient></defs></svg>