<svg xmlns="http://www.w3.org/2000/svg" viewBox="-0.5 0.5 50 50"><path class="msportalfx-svg-c19" d="M5.8 7.3v36.1c0 3.7 8.3 6.8 18.7 6.8v-43z" fill="#0072c6"/><path class="msportalfx-svg-c19" d="M24.2 50.2h.3c10.4 0 18.7-3 18.7-6.8V7.3h-19z" fill="#0072c6"/><path class="msportalfx-svg-c01" d="M24.2 50.2h.3c10.4 0 18.7-3 18.7-6.8V7.3h-19z" opacity=".1" fill="#fff"/><path class="msportalfx-svg-c01" d="M43.2 7.3C43.2 11 35 14 24.5 14 14.1 14 5.8 11 5.8 7.3S14 .5 24.5.5c10.4 0 18.7 3 18.7 6.8" fill="#e6e6e6"/><path class="msportalfx-svg-c14" d="M39.4 6.9c0 2.5-6.7 4.5-14.9 4.5s-15-2-15-4.5 6.8-4.5 15-4.5 15 2 15 4.5" fill="#7fba00"/><path class="msportalfx-svg-c13" d="M36.3 9.6c2-.7 3.1-1.7 3.1-2.7 0-2.5-6.7-4.5-14.9-4.5s-15 2-15 4.5c0 1 1.3 2 3.2 2.7 2.7-1 7-1.7 11.8-1.7 4.8 0 9 .7 11.8 1.7" fill="#b8d432"/><path class="msportalfx-svg-c01" d="M18.5 32.4a3 3 0 0 1-1.2 2.6c-.8.6-2 .9-3.3.9-1.3 0-2.3-.2-3.1-.7v-2.6c1 .8 2 1.2 3.1 1.2.6 0 1-.1 1.3-.3.3-.3.4-.6.4-1 0-.3-.1-.6-.4-.8a8 8 0 0 0-1.8-1c-1.8-1-2.7-2-2.7-3.5 0-1 .4-2 1.2-2.6.8-.6 1.9-1 3.2-1 1.1 0 2 .2 2.8.5v2.5c-.8-.6-1.7-.9-2.7-.9a2 2 0 0 0-1.2.4 1 1 0 0 0-.5.8c0 .4.2.7.4 1 .2.2.7.5 1.5.8 1 .6 1.9 1.1 2.3 1.6.5.6.7 1.3.7 2zm12.8-2.7c0 1.4-.3 2.6-1 3.6a5 5 0 0 1-2.6 2.2l3.4 3.1h-3.5L25.2 36c-1 0-2-.3-2.9-.8a5.2 5.2 0 0 1-2-2.2c-.4-.9-.6-1.9-.6-3a7 7 0 0 1 .7-3.3c.5-1 1.2-1.7 2.1-2.2 1-.5 2-.7 3.1-.7s2 .2 3 .7c.8.5 1.5 1.2 2 2.1.4 1 .7 2 .7 3.2zm-2.8.1c0-1.2-.3-2.1-.8-2.8-.5-.7-1.3-1-2.2-1-.9 0-1.6.3-2.2 1-.5.7-.8 1.6-.8 2.8 0 1.1.3 2 .8 2.7.6.7 1.3 1 2.2 1 .9 0 1.6-.3 2.2-1 .5-.6.8-1.5.8-2.7zm11.8 5.9h-7V23.9h2.6v9.6h4.4z" fill="#fff"/></svg>