<svg xmlns="http://www.w3.org/2000/svg" viewBox="0 0 50 50"><path class="msportalfx-svg-c19" d="M.8 0C.3 0 0 .3 0 .8v10c0 .5.3.9.8.9h5c.5 0 .9-.4.9-.9V6.7h36.6v4.1c0 .5.4.9 1 .9h4.9c.5 0 .8-.4.8-.9V.8c0-.5-.3-.8-.8-.8zm48.4 50c.5 0 .8-.3.8-.8v-9.9c0-.5-.3-.8-.8-.8h-4.9c-.5 0-.8.3-.8.8v4H6.7v-4.1c0-.5-.4-.9-1-.9H.8c-.5 0-.8.4-.8 1v9.9c0 .5.3.8.8.8z" fill="#015cda"/><path class="msportalfx-svg-c15" d="M29.9 26.1a6.8 6.8 0 0 1-9.8 0l-9.3-9.3v19h28.4v-19z" fill="#4894fe"/><path class="msportalfx-svg-c15" d="M25 26.7a5.5 5.5 0 0 0 3.9-1.6l10.3-10.3v-.5H10.8v.5l10.3 10.3a5.5 5.5 0 0 0 3.9 1.6z" fill="#4894fe"/></svg>