<svg xmlns="http://www.w3.org/2000/svg" width="250" height="250"><defs><linearGradient id="a" gradientUnits="userSpaceOnUse" x1="175" y1="111.9" x2="175" y2="-135.1" gradientTransform="matrix(1 0 0 -1 -50 111)"><stop offset="0" stop-color="#002e3b"/><stop offset="1" stop-color="#002639"/></linearGradient><radialGradient id="b" cx="63.3" cy="235.6" r="219.8" gradientUnits="userSpaceOnUse"><stop offset="0" stop-color="#00bc85"/><stop offset="1" stop-color="#149d91"/></radialGradient><radialGradient id="c" cx="186.8" cy="123.8" r="265.6" gradientTransform="matrix(1 0 0 -1 -50 111)" gradientUnits="userSpaceOnUse"><stop offset="0" stop-color="#00bc85"/><stop offset="1" stop-color="#149d91"/></radialGradient><radialGradient id="d" cx="118.1" cy="143.2" r="507.6" gradientTransform="matrix(1 0 0 -1 -50 111)" gradientUnits="userSpaceOnUse"><stop offset="0" stop-color="#004473"/><stop offset="1" stop-color="#00345f"/></radialGradient><linearGradient id="e" gradientUnits="userSpaceOnUse" x1="174.9" y1="110.6" x2="174.9" y2="-135.1" gradientTransform="matrix(1 0 0 -1 -50 111)"><stop offset="0" stop-color="#002e3b"/><stop offset="1" stop-color="#002639"/></linearGradient></defs><path fill="url(#a)" stroke="url(#a)" d="M125 210.8l-36-17.5h.1L51 211.7l74 36 74-35.9-38.2-19z"/><path fill="url(#b)" stroke="url(#b)" d="M51 212v-37.2l36.7-17.9 37.8 18.6z"/><path fill="url(#c)" stroke="url(#c)" d="M165.6 59v58.8l-41 20 37.7 18.7 36.7-17.9V38.1z"/><path fill="url(#d)" stroke="url(#d)" d="M199 212v-37.3l-114.5-57V59L51.1 38v100.6z"/><path fill="url(#e)" stroke="url(#e)" d="M84.4 58.9L124.9 39 165.5 59 198.8 38 125 2 51 38l33.4 21z"/></svg>